<?xml version="1.0" encoding="UTF-8"?>
<svg width="514px" height="128px" viewBox="0 0 514 128" version="1.1" xmlns="http://www.w3.org/2000/svg" xmlns:xlink="http://www.w3.org/1999/xlink">
    <g fill="#fbc37e" transform="translate(256.786767, 64.000000) scale(1, -1) translate(-256.786767, -64.000000) " fill-rule="nonzero">
        <g transform="translate(57.794393, 64.000000) scale(1, -1) translate(-57.794393, -64.000000) ">
            <g fill="#f89010" transform="translate(57.794393, 64.000000) scale(1, -1) translate(-57.794393, -64.000000) ">
                <path d="M42.7465657,3.06832923 C39.9267711,3.06832923 37.6326836,5.36241672 37.6326836,8.18221128 C37.6326836,11.0020058 39.9267711,13.2960933 42.7465657,13.2960933 C45.5663603,13.2960933 47.8604477,11.0020058 47.8604477,8.18221128 C47.8604477,5.36241672 45.5663603,3.06832923 42.7465657,3.06832923 M112.798568,75.9646723 C108.164368,92.8394603 98.1053616,106.459774 83.7394442,115.397817 C69.4461439,124.25506 56.0058391,125.691039 52.218498,125.907867 C48.6162795,126.131855 40.4514554,127.136222 35.3774617,127.880803 C31.1472584,128.506742 26.8853491,126.631993 24.4869385,123.091141 C21.7233966,119.011286 16.9582813,112.546316 14.429978,109.212065 C12.1358905,106.205102 4.40779197,95.0844545 1.3067339,79.1782358 C-2.02138054,62.0804825 1.00706041,45.8572031 10.400239,30.9256903 C11.0967497,29.8180235 11.8126932,28.7492221 12.54091,27.7008763 C12.2371454,26.8754957 12.0632734,25.9877258 12.0632734,25.058022 C12.0632734,21.2532938 14.8360202,18.1041652 18.4689221,17.4997044 C18.8811009,17.4311784 19.3024848,17.387199 19.7340965,17.387199 C23.8262249,17.387199 27.160476,20.5946258 27.3834412,24.6315243 C27.3906007,24.7736902 27.4049195,24.9138106 27.4049195,25.058022 C27.4049195,29.2943619 23.9704364,32.7288451 19.7340965,32.7288451 C19.4088536,32.7288451 19.0907701,32.7022529 18.775755,32.6633874 C18.2214102,33.4754719 17.6680881,34.2998297 17.1249939,35.1650985 C8.84970992,48.3272081 6.14242077,62.6205085 9.09210793,77.667595 C11.863832,91.9210071 18.7266617,101.759093 20.742554,104.453086 C23.317905,107.846659 28.2006396,114.477318 31.0316847,118.661496 C31.3804515,119.153452 31.8795663,119.56154 32.4155012,119.796778 C32.9524588,120.033039 33.5906713,120.125089 34.1879727,120.049404 C39.552435,119.244479 47.8716983,118.23193 51.7367703,118.01101 C58.5730079,117.627469 69.4655766,114.959046 79.5327648,108.688404 C92.3553127,100.690292 100.965044,88.993821 105.130813,73.8741173 C115.419943,36.4323185 91.1402543,18.1440535 79.8845999,11.8744341 C73.6180488,9.77569692 62.6968423,7.30876022 50.7600189,9.83706351 C50.6291035,10.4701621 50.4173888,11.0725774 50.1494213,11.6443094 C48.8423131,14.427284 46.0194502,16.3644226 42.7465657,16.3644226 C38.235099,16.3644226 34.5643544,12.693678 34.5643544,8.18221128 C34.5643544,3.67074453 38.235099,0 42.7465657,0 C43.1730635,0 43.5872879,0.0429566092 43.9963985,0.106368747 C45.6676151,0.363085625 47.173142,1.12607683 48.3503576,2.23681201 C62.0494249,-0.860154961 74.486386,1.65280668 82.6041624,4.40612077 C82.7442828,4.42964463 82.9017903,4.49817065 83.0603207,4.56874222 C83.2495343,4.65158711 83.3763586,4.70783981 83.5512533,4.82239077 C91.1555959,9.03316125 101.611439,16.6078433 108.587797,29.0949205 C116.207481,42.6927329 117.601526,58.450649 112.798568,75.9646723"></path>
            </g>
            <g transform="translate(67.097587, 61.083628) scale(1, -1) translate(-67.097587, -61.083628) translate(35.565716, 19.944813)">
                <path d="M14.8776512,82.2616524 C10.6463683,82.4500035 6.67470454,80.9666111 3.87692654,78.1535613 C1.07914854,75.3405116 -0.300396284,71.4401159 0.0549255946,67.3534052 C0.909123462,51.1745515 15.5954217,49.5140071 17.3201073,46.9941743 C17.0900135,45.9842049 16.6084454,45.0648478 15.9140915,44.3104251 C14.7106804,42.9023731 13.8483376,41.2418287 13.3810232,39.4336578 C11.5850696,30.712491 23.1966628,25.3012137 24.285027,24.4571969 C24.2361575,23.9267594 23.9989369,22.9371523 23.8340024,22.2458527 C20.0120014,6.1688104 34.5180934,-3.95328162 43.9387047,1.47835798 C56.3495176,8.63468315 63.5465673,21.7469768 63.0385283,36.2775035 C62.6852427,48.078466 57.342179,59.6646063 48.2483824,68.3470848 C39.1535677,77.0295632 27.1001129,82.0559933 14.8776512,82.2616524 Z"></path>
            </g>
        </g>
        <g transform="translate(147.761204, 20)">
            <g transform="translate(-0.000000, 1.535683)">
                <path d="M71.2221983,0 L46.5118521,0 L46.5118521,39.7305623 C46.5118521,48.4506501 42.9546018,52.810694 35.8529664,52.810694 C28.7448984,52.4864889 25.0281186,47.7983803 24.7090596,38.76052 L24.7090596,0 L0,0 L0,70.2534426 L24.7090596,70.2534426 L24.7090596,63.9546008 C31.1674309,69.1174382 37.7917644,71.7059329 44.5743407,71.7059329 C62.6603535,72.0237053 71.5412573,62.3348618 71.2221983,42.6368294 L71.2221983,0 Z"></path>
            </g>
            <g transform="translate(82.851126, 0.081778)">
                <path d="M70.2534426,1.93879792 L45.5430964,1.93879792 L45.5430964,6.78386293 C40.6980314,2.26428954 34.5574326,-2.28533307e-15 27.1315921,-2.28533307e-15 C9.03786024,-2.28533307e-15 0,9.84837297 0,29.5554111 L0,71.7072194 L24.7090596,71.7072194 L24.7090596,31.009188 C24.383568,22.2865271 27.7748562,18.0860127 34.8842107,18.4115043 C41.9845596,18.7292768 45.5430964,23.2565693 45.5430964,31.9779436 L45.5430964,71.7072194 L70.2534426,71.7072194 L70.2534426,1.93879792 Z"></path>
            </g>
            <g transform="translate(160.856930, 0.072710)">
                <path d="M8.2363532,22.7811309 L8.2363532,53.3052978 L1.14266654e-15,53.3052978 L1.14266654e-15,72.2018232 L8.2363532,72.2018232 L8.2363532,94.4883503 L32.9466993,99.8184364 L32.9466993,72.2018232 L46.5131387,72.2018232 L46.5131387,53.3052978 L32.9466993,53.3052978 L32.9466993,27.6261959 C32.9466993,23.0989034 34.7182486,20.842333 38.2754989,20.842333 C39.8888052,20.842333 41.8263166,21.6451266 44.0906062,23.266152 L48.4506501,4.85464771 C43.9233575,1.62932165 38.2754989,0.00958270816 31.4929225,0.00958270816 C15.6634802,-0.308189744 7.91086158,7.27718022 8.2363532,22.7811309"></path>
            </g>
            <g fill="#f89010" transform="translate(216.575435, 0.000000)">
                <path d="M0,22.8538409 L24.225325,27.2151713 C25.1940807,20.4313084 29.07039,17.0387336 35.8529664,17.0387336 C41.3412955,17.0387336 44.0906062,18.8102829 44.0906062,22.3688198 C43.7651145,24.6253901 40.0470482,26.5629015 32.9466993,28.183927 C31.652452,28.5016994 29.3881625,29.1526827 26.1628364,30.1214384 C22.9310777,30.7647024 20.5085452,31.248437 18.8965254,31.5739287 C7.91086158,35.1247463 2.25528384,41.7490798 1.93751139,51.4404963 C2.90626709,65.9756913 13.2409477,73.5597748 32.9466993,74.2120445 C51.6759761,74.529817 63.4695797,67.5877111 68.3159312,53.3780077 L45.0593619,48.0479216 C42.4695807,54.830498 38.5945579,58.0558241 33.4304339,57.7380516 C28.9031414,57.41256 26.4806089,55.6332915 26.1628364,52.409252 C26.1628364,49.8194708 28.5853689,48.0479216 33.4304339,47.0791659 C36.0124959,46.4281826 39.8888052,45.4581404 45.0593619,44.1716123 C46.9968733,43.8461207 48.2834014,43.520629 48.9356712,43.2028566 C62.5021105,39.9710979 69.1174382,32.7022138 68.7996658,21.4000641 C68.4741742,7.50813311 57.9748179,0.406497734 37.3067432,0.082292641 C15.9889718,-0.886463054 3.55081769,6.69762038 0,22.8538409"></path>
            </g>
            <g fill="#f89010" transform="translate(295.065488, 1.535683)">
                <path d="M70.7384637,0 L46.0281176,0 L46.0281176,39.7305623 C46.0281176,48.4506501 42.6368294,52.810694 35.8529664,52.810694 C28.7448984,52.4864889 25.0281186,47.7983803 24.7090596,38.76052 L24.7090596,0 L0,0 L0,103.200142 L24.7090596,103.200142 L24.7090596,63.9546008 C31.1674309,69.1174382 37.7917644,71.7059329 44.5743407,71.7059329 C62.3348618,72.0237053 71.0562361,62.3348618 70.7384637,42.6368294 L70.7384637,0 Z"></path>
            </g>
        </g>
    </g>
</svg>