<?xml version="1.0" encoding="UTF-8"?>
<svg width="180px" height="180px" viewBox="0 0 180 180" version="1.1" xmlns="http://www.w3.org/2000/svg" xmlns:xlink="http://www.w3.org/1999/xlink">
    <g stroke="none" stroke-width="1" fill="none" fill-rule="evenodd">
        <g transform="translate(15.000000, 7.000000)" fill-rule="nonzero">
            <g transform="translate(75.343142, 83.433026) scale(1, -1) translate(-75.343142, -83.433026) " fill="#EE9126">
                <path d="M55.7261773,3.9999999 C52.0501773,3.9999999 49.0595108,6.99066649 49.0595108,10.6666664 C49.0595108,14.3426663 52.0501773,17.3333329 55.7261773,17.3333329 C59.4021772,17.3333329 62.3928438,14.3426663 62.3928438,10.6666664 C62.3928438,6.99066649 59.4021772,3.9999999 55.7261773,3.9999999 M147.048842,99.0306642 C141.007508,121.02933 127.894175,138.78533 109.166176,150.43733 C90.532843,161.983996 73.0115102,163.855996 68.0741769,164.138663 C63.3781771,164.430663 52.7341773,165.739996 46.1195108,166.710662 C40.6048443,167.526662 35.0488444,165.082663 31.9221778,160.466663 C28.3195113,155.147996 22.1075114,146.719996 18.8115115,142.37333 C15.8208449,138.45333 5.7461785,123.955997 1.70351194,103.219997 C-2.63515462,80.9306646 1.31284528,59.7813318 13.5581783,40.315999 C14.4661783,38.871999 15.3995116,37.4786657 16.3488449,36.1119991 C15.9528449,35.0359991 15.7261783,33.8786658 15.7261783,32.6666658 C15.7261783,27.706666 19.3408448,23.6013327 24.0768447,22.8133328 C24.614178,22.7239994 25.1635114,22.6666661 25.726178,22.6666661 C31.0608445,22.6666661 35.4075111,26.8479993 35.6981778,32.1106659 C35.7075111,32.2959992 35.7261778,32.4786659 35.7261778,32.6666658 C35.7261778,38.1893324 31.2488445,42.6666656 25.726178,42.6666656 C25.302178,42.6666656 24.8875114,42.6319989 24.4768447,42.5813323 C23.7541781,43.6399989 23.0328447,44.7146655 22.3248448,45.8426655 C11.536845,63.0013318 8.00751178,81.6346646 11.852845,101.250664 C15.4661783,119.831997 24.4128447,132.65733 27.0408446,136.16933 C30.3981779,140.59333 36.7635111,149.23733 40.4541776,154.691996 C40.9088443,155.333329 41.5595109,155.865329 42.2581776,156.171996 C42.9581776,156.479996 43.7901776,156.599996 44.5688442,156.501329 C51.5621774,155.451996 62.4075104,154.131996 67.446177,153.843996 C76.3581767,153.343996 90.5581764,149.86533 103.682176,141.690663 C120.398176,131.263997 131.622175,116.015997 137.052842,96.3053309 C150.466175,47.4946655 118.814176,23.6533327 104.140843,15.4799996 C95.9715096,12.7439997 81.7341766,9.52799976 66.1728437,12.8239997 C66.002177,13.649333 65.726177,14.4346663 65.3768437,15.1799996 C63.6728437,18.8079995 59.9928438,21.3333328 55.7261773,21.3333328 C49.8448441,21.3333328 45.0595109,16.5479996 45.0595109,10.6666664 C45.0595109,4.78533321 49.8448441,0 55.7261773,0 C56.2821772,0 56.8221772,0.0559999986 57.3555105,0.138666663 C59.5341772,0.473333321 61.4968438,1.46799996 63.0315104,2.91599993 C80.8901766,-1.12133331 97.1035096,2.15466661 107.686176,5.74399986 C107.868843,5.77466652 108.074176,5.86399985 108.280843,5.95599985 C108.527509,6.06399985 108.692843,6.13733318 108.920843,6.28666651 C118.834176,11.7759997 132.464842,21.6506661 141.559508,37.9293324 C151.492842,55.6559986 153.310175,76.1986648 147.048842,99.0306642"></path>
            </g>
            <g transform="translate(87.471168, 79.631125) scale(1, -1) translate(-87.471168, -79.631125) translate(46.364927, 26.000877)" fill="#FBC37E">
                <path d="M19.3951166,107.239666 C13.8790426,107.485208 8.70141875,105.551397 5.05412054,101.88419 C1.40682233,98.2169828 -0.391608923,93.1322668 0.0716032592,87.8046631 C1.18517065,66.7132454 20.3308318,64.5484916 22.5792026,61.2635341 C22.2792429,59.9468966 21.651451,58.7483849 20.7462627,57.7648885 C19.1774467,55.9292941 18.0532613,53.7645403 17.444051,51.4073345 C15.1027722,40.0380636 30.2401216,32.9837004 31.6589578,31.8834056 C31.5952495,31.1919054 31.285999,29.9018131 31.0709836,29.0006066 C26.0884663,8.04191439 44.9992032,-5.15366015 57.2802986,1.92724814 C73.4595436,11.2565273 82.841913,28.3502513 82.1796125,47.2928424 C81.7190548,62.6770613 74.7536178,77.7812293 62.8985713,89.1000645 C51.0421976,100.4189 35.3288193,106.97156 19.3951166,107.239666 Z"></path>
            </g>
        </g>
    </g>
</svg>